<svg viewBox="0 0 400 400" xmlns="http://www.w3.org/2000/svg" id="Recycle-Drop--Streamline-Ux.svg" height="400" width="400"><desc>Recycle Drop Streamline Illustration: https://streamlinehq.com</desc><path d="M254.0128 53.0076C253.9964 53.878 253.5436 54.6816 252.808 55.1468L204.4136 89.0228C203.552 89.6848 202.3744 89.7576 201.4376 89.2064C200.4968 88.7228 199.9228 87.7372 199.9664 86.6804V69.844C99.404 69.8676 31.8668 173.0144 72.0556 265.1972L43.4012 254.7828C42.5644 254.4968 41.6444 254.598 40.8896 255.0584C40.1388 255.5228 39.6552 256.3176 39.5876 257.1976L35.4256 292.0848C-26.1568 169.6072 62.8776 25.1844 199.9664 25.1908V9.2836C199.9524 7.0928 202.3148 5.7088 204.2188 6.792C204.3944 6.8916 204.5584 7.01 204.7088 7.1444L253.1032 50.6992C253.7524 51.2832 254.0892 52.138 254.0128 53.0076Z" fill="none" stroke="#020064" stroke-linecap="round" stroke-linejoin="round" stroke-width="1"></path><path d="M261.364 241.9196C262.2032 289.1836 211.5632 319.632 170.2116 296.7272C150.3372 285.7184 138.1652 264.6356 138.5684 241.9196C138.5684 220.6988 161.8752 177.2552 179.7664 147.0328C184.8624 138.4236 189.518 130.8884 193.0748 125.2556C196.2612 120.1572 203.686 120.1572 206.872 125.2556C222.9148 150.7496 261.364 214.664 261.364 241.9196Z" fill="none" stroke="#020064" stroke-linecap="round" stroke-linejoin="round" stroke-width="1"></path><path d="M349.8336 316.0836C276.3664 419.7944 122.3008 419.33 49.46 315.1788L49.2764 315.2708L36.2532 324.4656C34.42 325.7048 31.9328 324.4948 31.776 322.2876C31.7636 322.1136 31.7672 321.9388 31.7864 321.7652C36.2436 285.3196 34.5788 299.0684 39.6024 257.2024C39.6696 256.3224 40.1532 255.5276 40.904 255.0632C41.6588 254.6028 42.5792 254.502 43.4156 254.7876L98.9528 274.9728C99.9516 275.2948 100.6748 276.1636 100.8112 277.2036C100.9312 278.2572 100.4676 279.2924 99.6016 279.904L86.1236 289.438C111.7564 327.0332 154.466 349.3504 199.9664 348.924C242.6104 348.9668 282.9108 329.4168 309.2744 295.8984L313.63 326.3192C313.7236 327.166 314.2044 327.922 314.9316 328.366C315.6996 328.7988 316.6204 328.866 317.4432 328.55Z" fill="none" stroke="#020064" stroke-linecap="round" stroke-linejoin="round" stroke-width="1"></path><path d="M379.9928 302.5964C379.95 303.708 379.2584 304.6916 378.2264 305.108L349.8528 316.0836L317.4772 328.55C316.6544 328.866 315.7336 328.7988 314.9656 328.366C314.238 327.922 313.7576 327.166 313.6636 326.3192L309.308 295.8984L305.306 267.8056C305.0468 265.5856 307.288 263.9172 309.3404 264.8028C309.3604 264.8112 309.3804 264.8204 309.4 264.8292L324.2864 272.4564C366.242 190.3684 318.2692 90.9056 227.9092 72.6364L252.8416 55.1468C253.5776 54.6816 254.03 53.878 254.0468 53.0076C254.1244 52.128 253.7796 51.264 253.1176 50.68L227.2556 27.4216C351.5452 45.784 421.192 180.6476 364.2116 292.622L378.536 299.8812C379.512 300.4224 380.0816 301.484 379.9928 302.596Z" fill="none" stroke="#020064" stroke-linecap="round" stroke-linejoin="round" stroke-width="1"></path></svg>