<svg viewBox="0 0 400 400" xmlns="http://www.w3.org/2000/svg" id="Recycle-Drop--Streamline-Ux.svg" height="400" width="400"><desc>Recycle Drop Streamline Illustration: https://streamlinehq.com</desc><path d="M4 200C4 350.8808 167.3332 445.1816 298 369.7408C358.6428 334.7288 396 270.024 396 200C396 49.1192 232.6668 -45.1816 102 30.2592C41.3572 65.2712 4 129.976 4 200Z" fill="#d9edff" stroke-width="1"></path><path d="M243.12 77.392C243.104 78.0952 242.7356 78.7432 242.14 79.1168L203.1116 106.41C202.4164 106.944 201.4672 107.004 200.7104 106.562C199.9512 106.1752 199.4836 105.3848 199.51 104.5332V90.9652C118.4136 90.99 63.9528 174.1704 96.36 248.51L73.2568 240.1112C72.5828 239.882 71.8416 239.9628 71.2328 240.332C70.6272 240.7088 70.2364 241.3508 70.1796 242.0616L66.8032 270.1924C17.1288 171.4172 88.9472 54.9372 199.51 54.96V42.1316C199.5032 40.3628 201.414 39.2496 202.9492 40.128C203.088 40.2072 203.2176 40.3008 203.3368 40.4068L242.346 75.54C242.8812 76.0012 243.168 76.6872 243.12 77.392Z" fill="#ffffff" stroke="#020064" stroke-linecap="round" stroke-linejoin="round" stroke-width="1"></path><path d="M249 229.7284C249.5372 267.8408 208.6152 292.2428 175.34 273.652C159.4608 264.78 149.7244 247.916 149.9808 229.7284C149.9808 212.6176 168.7724 177.5876 183.2028 153.21C187.314 146.2716 191.0428 140.1956 193.9336 135.6432C196.5012 131.5308 202.4896 131.5308 205.0568 135.6432C218.0172 156.2088 249 207.7516 249 229.7284Z" fill="#b0d9ff" stroke="#020064" stroke-linecap="round" stroke-linejoin="round" stroke-width="1"></path><path d="M320.3636 289.5376C261.112 373.172 136.8648 372.7872 78.132 288.788L77.9804 288.8616L67.4796 296.29C66.0012 297.2892 63.996 296.3132 63.8696 294.5336C63.86 294.394 63.8628 294.2536 63.878 294.1144C67.4696 264.7144 66.1272 275.808 70.1796 242.052C70.2364 241.3408 70.6272 240.6992 71.2328 240.322C71.8416 239.9528 72.5828 239.872 73.2568 240.1016L118.0428 256.3796C118.8464 256.6412 119.4292 257.34 119.542 258.1776C119.6368 259.0276 119.2612 259.8616 118.562 260.3532L107.694 268.0464C128.3656 298.3688 162.8132 316.3664 199.51 316.0172C233.8976 316.05 266.3944 300.2864 287.656 273.26L291.1792 297.7892C291.2592 298.472 291.6472 299.0808 292.2328 299.4408C292.852 299.7876 293.5936 299.8416 294.2564 299.5876Z" fill="#ffffff" stroke="#020064" stroke-linecap="round" stroke-linejoin="round" stroke-width="1"></path><path d="M344.6676 278.6596C344.6348 279.5572 344.0756 280.3504 343.2416 280.6836L320.3636 289.5376L294.2564 299.5876C293.5936 299.8416 292.852 299.7876 292.2328 299.4408C291.6472 299.0804 291.2588 298.472 291.1792 297.7892L287.656 273.26L284.4268 250.6024C284.23 248.8024 286.0552 247.4644 287.7124 248.1936C287.718 248.1964 287.724 248.1988 287.7296 248.2012L299.7344 254.3556C333.5632 188.1596 294.8796 107.956 222.0156 93.2192L242.1056 79.1168C242.7016 78.7432 243.0696 78.0952 243.0856 77.392C243.1476 76.6832 242.8692 75.9868 242.336 75.5156L221.4816 56.7584C321.7168 71.5672 377.878 180.336 331.9128 270.6336L343.4672 276.484C344.2604 276.91 344.7304 277.7616 344.6676 278.6596Z" fill="#ffffff" stroke="#020064" stroke-linecap="round" stroke-linejoin="round" stroke-width="1"></path></svg>