<svg viewBox="-2 -2 400 400" xmlns="http://www.w3.org/2000/svg" id="Recycle-Drop--Streamline-Ux.svg" height="400" width="400"><desc>Recycle Drop Streamline Illustration: https://streamlinehq.com</desc><path d="M3.96 198C3.96 347.37199200000003 165.65986800000002 440.729784 295.02 366.043392C355.056372 331.381512 392.04 267.32376 392.04 198C392.04 48.628008 230.34013199999998 -44.729784 100.98 29.956608C40.943628 64.618488 3.96 128.67624 3.96 198Z" fill="#b0d9ff40" stroke-width="4"></path><path d="M240.68880000000001 76.61807999999999C240.67296000000002 77.314248 240.308244 77.955768 239.71859999999998 78.325632L201.080484 105.3459C200.392236 105.87456 199.452528 105.93396 198.703296 105.49638C197.951688 105.113448 197.488764 104.330952 197.51489999999998 103.48786799999999V90.055548C117.22946400000001 90.08009999999999 63.313272000000005 172.428696 95.3964 246.0249L72.524232 237.71008799999998C71.856972 237.48318 71.123184 237.56317199999998 70.520472 237.92867999999999C69.920928 238.30171199999998 69.534036 238.93729199999999 69.47780399999999 239.640984L66.13516800000001 267.490476C16.957511999999998 169.70302800000002 88.057728 54.387828 197.51489999999998 54.4104V41.710284C197.50816799999998 39.959172 199.39986 38.857104 200.91970799999999 39.72672C201.05712 39.805128 201.185424 39.897792 201.30343200000002 40.002731999999995L239.92254 74.78460000000001C240.452388 75.241188 240.73632 75.920328 240.68880000000001 76.61807999999999Z" fill="#ffffff" stroke="#000000" stroke-linecap="round" stroke-linejoin="round" stroke-width="4"></path><path d="M246.51 227.431116C247.041828 265.162392 206.529048 289.32037199999996 173.5866 270.91548C157.866192 262.13219999999995 148.227156 245.43684 148.480992 227.431116C148.480992 210.491424 167.084676 175.811724 181.370772 151.6779C185.44086 144.808884 189.132372 138.793644 191.99426400000002 134.286768C194.536188 130.215492 200.46470399999998 130.215492 203.006232 134.286768C215.837028 154.646712 246.51 205.674084 246.51 227.431116Z" fill="#b0d9ff" stroke="#000000" stroke-linecap="round" stroke-linejoin="round" stroke-width="4"></path><path d="M317.159964 286.642224C258.50088 369.44028000000003 135.496152 369.059328 77.35068000000001 285.90012L77.200596 285.972984L66.804804 293.32710000000003C65.341188 294.316308 63.35604 293.35006799999996 63.230903999999995 291.588264C63.221399999999996 291.45006 63.224172 291.311064 63.23922 291.173256C66.794904 262.067256 65.465928 273.04992 69.47780399999999 239.63147999999998C69.534036 238.927392 69.920928 238.292208 70.520472 237.91878C71.123184 237.553272 71.856972 237.47328000000002 72.524232 237.700584L116.862372 253.81580399999999C117.657936 254.074788 118.23490799999999 254.76659999999998 118.34658 255.595824C118.44043199999999 256.437324 118.068588 257.262984 117.37638 257.749668L106.61706 265.365936C127.081944 295.385112 161.185068 313.202736 197.51489999999998 312.857028C231.558624 312.8895 263.730456 297.283536 284.77944 270.5274L288.267408 294.811308C288.346608 295.48728 288.730728 296.089992 289.310472 296.446392C289.92348 296.789724 290.65766399999995 296.843184 291.313836 296.591724Z" fill="#ffffff" stroke="#000000" stroke-linecap="round" stroke-linejoin="round" stroke-width="4"></path><path d="M341.22092399999997 275.87300400000004C341.188452 276.76162800000003 340.634844 277.546896 339.809184 277.87676400000004L317.159964 286.642224L291.313836 296.591724C290.65766399999995 296.843184 289.92348 296.789724 289.310472 296.446392C288.730728 296.089596 288.346212 295.48728 288.267408 294.811308L284.77944 270.5274L281.582532 248.096376C281.3877 246.314376 283.19464800000003 244.989756 284.835276 245.711664C284.84082 245.714436 284.84675999999996 245.716812 284.852304 245.719188L296.737056 251.81204400000001C330.227568 186.278004 291.93080399999997 106.87644 219.795444 92.287008L239.68454400000002 78.325632C240.274584 77.955768 240.638904 77.314248 240.654744 76.61807999999999C240.716124 75.916368 240.440508 75.226932 239.91264 74.760444L219.26678399999997 56.190816C318.49963199999996 70.851528 374.09922 178.53264000000001 328.593672 267.927264L340.032528 273.71916C340.817796 274.14090000000004 341.28309599999994 274.98398399999996 341.22092399999997 275.87300400000004Z" fill="#ffffff" stroke="#000000" stroke-linecap="round" stroke-linejoin="round" stroke-width="4"></path></svg>